<svg width="168" height="34" viewBox="0 0 168 34" fill="none" xmlns="http://www.w3.org/2000/svg">
<path d="M13.4886 3.19111C13.7401 3.04293 14.0481 2.90067 14.319 3.09331C15.4278 3.70829 16.5187 4.35735 17.623 4.97678C17.6289 5.01234 17.6394 5.08199 17.6453 5.11755C14.0496 7.1581 10.4763 9.23717 6.88506 11.2851C6.41923 11.5696 5.88791 11.7727 5.49947 12.1654C5.43994 12.6722 5.47566 13.1834 5.49352 13.6917C6.1052 13.3983 6.6901 13.0574 7.27499 12.7166C11.0508 10.5457 14.834 8.38805 18.6053 6.2097C18.8508 6.08818 19.1395 5.86294 19.4193 6.03335C20.165 6.40086 20.8466 6.88395 21.5878 7.26183C21.9836 7.49893 22.442 7.66342 22.7635 8.00277C22.7218 8.18355 22.5164 8.24431 22.387 8.34952C15.5007 12.2661 8.65611 16.2568 1.76687 20.169C1.73562 16.7547 1.75794 13.3405 1.75496 9.92624C5.66318 7.67527 9.5848 5.44949 13.4886 3.19111Z" fill="#3BCBB0"/>
<path d="M23.9092 9.12279C24.125 9.01758 24.384 8.84123 24.6191 9.00276C25.1772 9.27987 25.6922 9.63404 26.2384 9.93338C26.2369 10.575 26.2667 11.2167 26.2354 11.8583C26.2592 12.128 25.9616 12.2199 25.7859 12.3474C22.4582 14.2338 19.1542 16.1632 15.8264 18.0526C15.0674 17.6258 14.3173 17.1842 13.5925 16.7026C13.0894 16.3603 12.515 16.1365 11.9152 16.0402C13.1668 15.2192 14.5137 14.5598 15.7936 13.7848C18.4964 12.2273 21.214 10.6921 23.9092 9.12279Z" fill="#3BCBB0"/>
<path d="M17.968 18.5223C20.5666 16.9575 23.2291 15.4978 25.8514 13.9715C26.2741 14.788 26.0643 15.7201 26.091 16.5974C26.0479 19.0351 26.1789 21.4787 25.9869 23.9104C25.0984 23.288 24.128 22.8035 23.177 22.2907C22.726 22.1114 22.7558 21.5987 22.6888 21.2001C22.6427 21.4061 22.5951 21.6106 22.5475 21.8165C22.5341 21.2845 22.537 20.7526 22.5147 20.222C22.0146 20.471 21.522 20.7333 21.0383 21.0134C20.0948 20.4088 19.0708 19.9301 18.16 19.2781C17.8594 19.1299 17.9472 18.7891 17.968 18.5223Z" fill="#3BCBB0"/>
<path d="M25.8514 13.9715C25.9779 13.9063 26.103 13.8411 26.2309 13.7788C26.2548 16.9426 26.228 20.1065 26.2473 23.2703C26.2443 23.5029 26.2503 23.7385 26.2116 23.9712C25.8276 24.2602 25.3916 24.4706 24.9778 24.7106C21.3122 26.7942 17.6719 28.9251 14.0018 30.9997C12.7695 30.3136 11.5416 29.6171 10.3436 28.8747C11.6041 28.0582 12.9332 27.3573 14.2324 26.606C16.9947 24.9937 19.7897 23.4362 22.5475 21.8165C22.5951 21.6106 22.6427 21.4061 22.6888 21.2001C22.7558 21.5987 22.726 22.1114 23.177 22.2907C24.128 22.8035 25.0984 23.288 25.9869 23.9104C26.1789 21.4787 26.0479 19.0351 26.091 16.5974C26.0643 15.7201 26.2741 14.788 25.8514 13.9715Z" fill="#3BCBB0"/>
<path d="M1.81425 21.8343C5.1599 19.8723 8.54126 17.9577 11.9152 16.0402C12.515 16.1365 13.0894 16.3603 13.5925 16.7026C14.3173 17.1842 15.0674 17.6258 15.8264 18.0526C13.0254 19.6812 10.1799 21.2386 7.41613 22.9265C7.86856 23.1902 8.30016 23.5074 8.79427 23.6926C8.97286 23.6496 9.1336 23.5592 9.29433 23.4748C12.1935 21.8402 15.054 20.1331 17.968 18.5223C17.9472 18.7891 17.8594 19.1299 18.16 19.2781C19.0708 19.9301 20.0948 20.4088 21.0383 21.0134C17.1227 23.2643 13.204 25.5094 9.28838 27.7618C9.07407 27.8567 8.8285 28.0864 8.59931 27.9011C6.31033 26.6193 4.04964 25.2841 1.76513 23.9934C1.78746 23.2747 1.69072 22.5441 1.81425 21.8343Z" fill="#3BCBB0"/>
<path d="M48.8168 12.4929C48.7372 11.6908 48.3958 11.0677 47.7926 10.6236C47.1894 10.1794 46.3707 9.95739 45.3366 9.95739C44.634 9.95739 44.0407 10.0568 43.5568 10.2557C43.0729 10.4479 42.7017 10.7164 42.4432 11.0611C42.1913 11.4058 42.0653 11.7969 42.0653 12.2344C42.0521 12.599 42.1283 12.9171 42.294 13.1889C42.4664 13.4607 42.7017 13.696 43 13.8949C43.2983 14.0871 43.643 14.2562 44.0341 14.402C44.4252 14.5412 44.8428 14.6605 45.2869 14.7599L47.1165 15.1974C48.0047 15.3963 48.8201 15.6615 49.5625 15.9929C50.3049 16.3243 50.9479 16.732 51.4915 17.2159C52.035 17.6998 52.456 18.2699 52.7543 18.9261C53.0592 19.5824 53.215 20.3348 53.2216 21.1832C53.215 22.4295 52.8968 23.5099 52.267 24.4247C51.6439 25.3329 50.7424 26.0388 49.5625 26.5426C48.3892 27.0398 46.974 27.2884 45.3168 27.2884C43.6728 27.2884 42.241 27.0365 41.0213 26.5327C39.8082 26.0289 38.8603 25.2831 38.1776 24.2955C37.5014 23.3011 37.1468 22.0715 37.1136 20.6065H41.2798C41.3262 21.2893 41.5218 21.8594 41.8665 22.3168C42.2178 22.7675 42.6851 23.1089 43.2685 23.3409C43.8584 23.5663 44.5246 23.679 45.267 23.679C45.9962 23.679 46.6293 23.5729 47.1662 23.3608C47.7098 23.1487 48.1307 22.8537 48.429 22.4759C48.7273 22.098 48.8764 21.6638 48.8764 21.1733C48.8764 20.7159 48.7405 20.3314 48.4688 20.0199C48.2036 19.7083 47.8125 19.4432 47.2955 19.2244C46.785 19.0057 46.1586 18.8068 45.4162 18.6278L43.1989 18.071C41.482 17.6534 40.1264 17.0005 39.1321 16.1122C38.1378 15.224 37.6439 14.0275 37.6506 12.5227C37.6439 11.2898 37.9721 10.2126 38.6349 9.29119C39.3045 8.36979 40.2225 7.65057 41.3892 7.13352C42.5559 6.61648 43.8816 6.35795 45.3665 6.35795C46.8778 6.35795 48.197 6.61648 49.3239 7.13352C50.4574 7.65057 51.339 8.36979 51.9688 9.29119C52.5985 10.2126 52.9233 11.2798 52.9432 12.4929H48.8168ZM60.9531 27.2884C59.9787 27.2884 59.1103 27.1193 58.348 26.7812C57.5857 26.4366 56.9825 25.9295 56.5383 25.2599C56.1008 24.5838 55.8821 23.742 55.8821 22.7344C55.8821 21.8859 56.0379 21.1733 56.3494 20.5966C56.661 20.0199 57.0852 19.5559 57.6221 19.2045C58.1591 18.8532 58.7689 18.5881 59.4517 18.4091C60.1411 18.2301 60.8636 18.1042 61.6193 18.0312C62.5076 17.9384 63.2235 17.8523 63.767 17.7727C64.3106 17.6866 64.705 17.5606 64.9503 17.3949C65.1955 17.2292 65.3182 16.9839 65.3182 16.6591V16.5994C65.3182 15.9697 65.1193 15.4825 64.7216 15.1378C64.3305 14.7931 63.7737 14.6207 63.0511 14.6207C62.2888 14.6207 61.6823 14.7898 61.2315 15.1278C60.7808 15.4593 60.4825 15.8769 60.3366 16.3807L56.419 16.0625C56.6179 15.1345 57.009 14.3324 57.5923 13.6562C58.1756 12.9735 58.928 12.4498 59.8494 12.0852C60.7774 11.714 61.8513 11.5284 63.071 11.5284C63.9195 11.5284 64.7315 11.6278 65.5071 11.8267C66.2893 12.0256 66.982 12.3338 67.5852 12.7514C68.1951 13.169 68.6756 13.706 69.027 14.3622C69.3783 15.0118 69.554 15.7907 69.554 16.6989V27H65.5369V24.8821H65.4176C65.1723 25.3594 64.8442 25.7803 64.4332 26.1449C64.0222 26.5028 63.5284 26.7846 62.9517 26.9901C62.375 27.1889 61.7088 27.2884 60.9531 27.2884ZM62.1662 24.3651C62.7893 24.3651 63.3395 24.2424 63.8167 23.9972C64.294 23.7453 64.6685 23.4072 64.9403 22.983C65.2121 22.5587 65.348 22.0781 65.348 21.5412V19.9205C65.2154 20.0066 65.0331 20.0862 64.8011 20.1591C64.5757 20.2254 64.3205 20.2884 64.0355 20.348C63.7505 20.401 63.4654 20.4508 63.1804 20.4972C62.8953 20.5369 62.6368 20.5734 62.4048 20.6065C61.9077 20.6795 61.4735 20.7955 61.1023 20.9545C60.731 21.1136 60.4427 21.3291 60.2372 21.6009C60.0317 21.866 59.929 22.1974 59.929 22.5952C59.929 23.1719 60.1378 23.6127 60.5554 23.9176C60.9796 24.2159 61.5166 24.3651 62.1662 24.3651ZM86.1076 16.0824L82.2297 16.321C82.1634 15.9896 82.0209 15.6913 81.8022 15.4261C81.5834 15.1544 81.2951 14.9389 80.9371 14.7798C80.5858 14.6141 80.1649 14.5312 79.6743 14.5312C79.0181 14.5312 78.4646 14.6705 78.0138 14.9489C77.5631 15.2206 77.3377 15.5852 77.3377 16.0426C77.3377 16.4072 77.4835 16.7154 77.7752 16.9673C78.0669 17.2192 78.5673 17.4214 79.2766 17.5739L82.0408 18.1307C83.5257 18.4356 84.6327 18.9261 85.3618 19.6023C86.091 20.2784 86.4556 21.1667 86.4556 22.267C86.4556 23.268 86.1606 24.1463 85.5706 24.902C84.9873 25.6577 84.1852 26.2476 83.1644 26.6719C82.1502 27.0895 80.9802 27.2983 79.6544 27.2983C77.6327 27.2983 76.0219 26.8774 74.8221 26.0355C73.6289 25.187 72.9295 24.0336 72.724 22.5753L76.8902 22.3565C77.0162 22.973 77.3211 23.4437 77.805 23.7685C78.2889 24.0866 78.9087 24.2457 79.6644 24.2457C80.4068 24.2457 81.0034 24.1032 81.4542 23.8182C81.9115 23.5265 82.1436 23.152 82.1502 22.6946C82.1436 22.3101 81.9811 21.9953 81.663 21.75C81.3448 21.4981 80.8543 21.3059 80.1914 21.1733L77.5465 20.6463C76.055 20.348 74.9447 19.831 74.2155 19.0952C73.493 18.3594 73.1317 17.4214 73.1317 16.2812C73.1317 15.3002 73.3969 14.455 73.9272 13.7457C74.4641 13.0365 75.2165 12.4896 76.1843 12.1051C77.1587 11.7206 78.2989 11.5284 79.6047 11.5284C81.5337 11.5284 83.0517 11.9361 84.1587 12.7514C85.2723 13.5668 85.922 14.6771 86.1076 16.0824ZM102.39 16.0824L98.5124 16.321C98.4461 15.9896 98.3036 15.6913 98.0848 15.4261C97.8661 15.1544 97.5777 14.9389 97.2198 14.7798C96.8684 14.6141 96.4475 14.5312 95.957 14.5312C95.3007 14.5312 94.7472 14.6705 94.2965 14.9489C93.8457 15.2206 93.6203 15.5852 93.6203 16.0426C93.6203 16.4072 93.7662 16.7154 94.0578 16.9673C94.3495 17.2192 94.85 17.4214 95.5593 17.5739L98.3235 18.1307C99.8083 18.4356 100.915 18.9261 101.644 19.6023C102.374 20.2784 102.738 21.1667 102.738 22.267C102.738 23.268 102.443 24.1463 101.853 24.902C101.27 25.6577 100.468 26.2476 99.447 26.6719C98.4328 27.0895 97.2629 27.2983 95.9371 27.2983C93.9153 27.2983 92.3045 26.8774 91.1047 26.0355C89.9115 25.187 89.2122 24.0336 89.0067 22.5753L93.1729 22.3565C93.2988 22.973 93.6038 23.4437 94.0877 23.7685C94.5716 24.0866 95.1914 24.2457 95.947 24.2457C96.6895 24.2457 97.2861 24.1032 97.7368 23.8182C98.1942 23.5265 98.4262 23.152 98.4328 22.6946C98.4262 22.3101 98.2638 21.9953 97.9456 21.75C97.6274 21.4981 97.1369 21.3059 96.474 21.1733L93.8291 20.6463C92.3377 20.348 91.2273 19.831 90.4982 19.0952C89.7756 18.3594 89.4144 17.4214 89.4144 16.2812C89.4144 15.3002 89.6795 14.455 90.2098 13.7457C90.7468 13.0365 91.4991 12.4896 92.4669 12.1051C93.4414 11.7206 94.5815 11.5284 95.8874 11.5284C97.8164 11.5284 99.3344 11.9361 100.441 12.7514C101.555 13.5668 102.205 14.6771 102.39 16.0824ZM105.965 32.7273V11.7273H110.142V14.2926H110.331C110.516 13.8816 110.785 13.464 111.136 13.0398C111.494 12.6089 111.958 12.2509 112.528 11.9659C113.105 11.6742 113.821 11.5284 114.676 11.5284C115.789 11.5284 116.817 11.8201 117.758 12.4034C118.699 12.9801 119.452 13.8518 120.015 15.0185C120.579 16.1785 120.86 17.6335 120.86 19.3835C120.86 21.0871 120.585 22.5256 120.035 23.6989C119.492 24.8655 118.749 25.7505 117.808 26.3537C116.873 26.9503 115.826 27.2486 114.666 27.2486C113.844 27.2486 113.144 27.1127 112.568 26.8409C111.998 26.5691 111.53 26.2277 111.166 25.8168C110.801 25.3991 110.523 24.9782 110.331 24.554H110.201V32.7273H105.965ZM110.112 19.3636C110.112 20.2718 110.238 21.0639 110.49 21.7401C110.742 22.4162 111.106 22.9432 111.583 23.321C112.061 23.6922 112.641 23.8778 113.323 23.8778C114.013 23.8778 114.596 23.6889 115.073 23.3111C115.551 22.9266 115.912 22.3963 116.157 21.7202C116.409 21.0374 116.535 20.2519 116.535 19.3636C116.535 18.482 116.412 17.7064 116.167 17.0369C115.922 16.3674 115.561 15.8437 115.083 15.4659C114.606 15.0881 114.019 14.8991 113.323 14.8991C112.634 14.8991 112.051 15.0814 111.573 15.446C111.103 15.8106 110.742 16.3277 110.49 16.9972C110.238 17.6667 110.112 18.4555 110.112 19.3636ZM128.599 27.2884C127.625 27.2884 126.757 27.1193 125.994 26.7812C125.232 26.4366 124.629 25.9295 124.185 25.2599C123.747 24.5838 123.528 23.742 123.528 22.7344C123.528 21.8859 123.684 21.1733 123.996 20.5966C124.307 20.0199 124.731 19.5559 125.268 19.2045C125.805 18.8532 126.415 18.5881 127.098 18.4091C127.787 18.2301 128.51 18.1042 129.266 18.0312C130.154 17.9384 130.87 17.8523 131.413 17.7727C131.957 17.6866 132.351 17.5606 132.597 17.3949C132.842 17.2292 132.964 16.9839 132.964 16.6591V16.5994C132.964 15.9697 132.766 15.4825 132.368 15.1378C131.977 14.7931 131.42 14.6207 130.697 14.6207C129.935 14.6207 129.329 14.7898 128.878 15.1278C128.427 15.4593 128.129 15.8769 127.983 16.3807L124.065 16.0625C124.264 15.1345 124.655 14.3324 125.239 13.6562C125.822 12.9735 126.574 12.4498 127.496 12.0852C128.424 11.714 129.498 11.5284 130.717 11.5284C131.566 11.5284 132.378 11.6278 133.153 11.8267C133.936 12.0256 134.628 12.3338 135.231 12.7514C135.841 13.169 136.322 13.706 136.673 14.3622C137.025 15.0118 137.2 15.7907 137.2 16.6989V27H133.183V24.8821H133.064C132.819 25.3594 132.49 25.7803 132.079 26.1449C131.668 26.5028 131.175 26.7846 130.598 26.9901C130.021 27.1889 129.355 27.2884 128.599 27.2884ZM129.812 24.3651C130.436 24.3651 130.986 24.2424 131.463 23.9972C131.94 23.7453 132.315 23.4072 132.587 22.983C132.858 22.5587 132.994 22.0781 132.994 21.5412V19.9205C132.862 20.0066 132.679 20.0862 132.447 20.1591C132.222 20.2254 131.967 20.2884 131.682 20.348C131.397 20.401 131.112 20.4508 130.827 20.4972C130.542 20.5369 130.283 20.5734 130.051 20.6065C129.554 20.6795 129.12 20.7955 128.749 20.9545C128.377 21.1136 128.089 21.3291 127.883 21.6009C127.678 21.866 127.575 22.1974 127.575 22.5952C127.575 23.1719 127.784 23.6127 128.202 23.9176C128.626 24.2159 129.163 24.3651 129.812 24.3651ZM141.046 27V11.7273H145.153V14.392H145.312C145.59 13.4441 146.058 12.7282 146.714 12.2443C147.37 11.7538 148.126 11.5085 148.981 11.5085C149.193 11.5085 149.422 11.5218 149.667 11.5483C149.912 11.5748 150.128 11.6113 150.313 11.6577V15.4162C150.115 15.3565 149.84 15.3035 149.488 15.2571C149.137 15.2107 148.815 15.1875 148.524 15.1875C147.901 15.1875 147.344 15.3234 146.853 15.5952C146.369 15.8603 145.985 16.2315 145.7 16.7088C145.421 17.1861 145.282 17.7363 145.282 18.3594V27H141.046ZM156.902 22.6051L156.911 17.5241H157.528L162.42 11.7273H167.282L160.71 19.4034H159.706L156.902 22.6051ZM153.063 27V6.63636H157.299V27H153.063ZM162.609 27L158.115 20.348L160.938 17.3551L167.571 27H162.609Z" fill="#0E0C1E"/>
</svg>
